<svg width="24" height="24" viewBox="0 0 24 24" fill="none" xmlns="http://www.w3.org/2000/svg">
<path d="M0.0254777 12.8426C0.0254777 12.9957 0.0509554 13.1489 0.0509554 13.2766C0.0509554 13.3532 0.0764331 13.4298 0.0764331 13.5064C0.101911 13.634 0.101911 13.7617 0.127389 13.9149C0.152866 13.9915 0.152866 14.0936 0.178344 14.1702C0.203822 14.2979 0.229299 14.4255 0.254777 14.5277C0.280255 14.6298 0.305732 14.7064 0.305732 14.8085C0.33121 14.9106 0.356688 15.0383 0.382166 15.1404C0.433121 15.217 0.458599 15.3191 0.509554 15.4213C0.535032 15.5234 0.56051 15.6 0.585987 15.7021C0.611465 15.8043 0.66242 15.9319 0.687898 16.034C0.713376 16.1106 0.738854 16.1872 0.764331 16.2638C0.815287 16.3915 0.866242 16.5191 0.917197 16.6468C0.942675 16.6979 0.968153 16.7489 0.968153 16.7745C1.70701 18.4851 2.82803 19.9915 4.28025 21.217L4.94268 21.7787V21.7277C6.95541 23.1574 9.35032 24 11.9745 24C14.6752 24 17.172 23.1064 19.1847 21.5745V21.6L19.8217 21.0638C19.8726 21.0128 19.9236 20.9617 19.9745 20.9362C20.0255 20.9106 20.051 20.8596 20.1019 20.834C20.2038 20.7319 20.3057 20.6298 20.4076 20.5277C20.4331 20.5021 20.4841 20.4511 20.5096 20.4255C20.6115 20.3234 20.7389 20.1957 20.8408 20.0936C20.8662 20.0681 20.8662 20.0681 20.8917 20.0426C21.2484 19.6596 21.5541 19.2511 21.8599 18.817C21.8854 18.7915 21.9108 18.766 21.9363 18.7149C21.9873 18.6128 22.0637 18.5362 22.1147 18.434C22.1656 18.3574 22.2166 18.2808 22.2675 18.1787C22.3185 18.1021 22.3694 18.0255 22.3949 17.9489C22.4459 17.8468 22.5223 17.7447 22.5732 17.6426C22.5987 17.566 22.6497 17.5149 22.6752 17.4383C22.7261 17.3106 22.8025 17.183 22.8535 17.0809C22.879 17.0298 22.9045 16.9787 22.9299 16.9021C22.9809 16.7745 23.0573 16.6213 23.1083 16.4936C23.1338 16.4426 23.1592 16.3915 23.1592 16.3404C23.2102 16.1872 23.2611 16.034 23.3121 15.8808C23.3376 15.8298 23.3376 15.8043 23.3631 15.7532C23.414 15.6 23.465 15.4213 23.5159 15.2681C23.5159 15.2426 23.5414 15.1915 23.5414 15.166C23.5924 14.9872 23.6178 14.834 23.6688 14.6553C23.6688 14.6298 23.6943 14.5787 23.6943 14.5532C23.7197 14.3745 23.7707 14.2213 23.7962 14.0426C23.7962 14.017 23.8217 13.966 23.8217 13.9404C23.8471 13.7617 23.8726 13.6085 23.8981 13.4298C23.8981 13.3787 23.8981 13.3532 23.9236 13.3021C23.949 13.1234 23.949 12.9702 23.9745 12.7915C23.9745 12.7404 23.9745 12.7149 23.9745 12.6638C23.9745 12.4596 24 12.2298 24 12.0255C23.949 5.38723 18.5732 0 11.9745 0C5.3758 0 0 5.38723 0 12C0 12.2043 -2.46771e-08 12.434 0.0254777 12.6383C0.0254777 12.7149 0.0254777 12.766 0.0254777 12.8426ZM5.22293 20.6298C5.32484 20.3234 5.47771 20.017 5.68153 19.7362C7.33758 17.5404 9.65605 16.2894 12.0764 16.2894C14.4968 16.2894 16.8408 17.5404 18.4713 19.7362C18.6497 19.966 18.7771 20.2213 18.879 20.5021C17.0191 22.0596 14.5987 22.9787 11.9745 22.9787C9.42675 22.9787 7.0828 22.0851 5.22293 20.6298ZM11.9745 1.02128C18.0127 1.02128 22.9299 5.94894 22.9299 12C22.9299 12.1787 22.9299 12.3574 22.9045 12.5617C22.9045 12.7149 22.879 12.8681 22.879 12.9957C22.879 13.0213 22.879 13.0723 22.879 13.0979C22.7516 14.3489 22.4204 15.5489 21.8854 16.6723C21.8854 16.6979 21.8854 16.6979 21.8599 16.7234C21.8089 16.8511 21.7325 16.9787 21.6815 17.0809C21.6561 17.1319 21.6306 17.1574 21.6306 17.2085C21.5796 17.2851 21.5287 17.3872 21.4777 17.4638C21.4268 17.5404 21.4013 17.617 21.3503 17.6936C21.3248 17.7447 21.2994 17.7702 21.2739 17.8213C20.8153 18.5362 20.3057 19.2 19.6943 19.8128C19.5924 19.583 19.4395 19.3787 19.2866 19.1489C17.4522 16.6979 14.8025 15.2936 12.0764 15.2936C9.32484 15.2936 6.70064 16.6979 4.86624 19.1489C4.6879 19.4043 4.53503 19.6596 4.40764 19.9404C2.95541 18.5617 1.88535 16.7745 1.3758 14.7574C1.3758 14.7064 1.35032 14.6553 1.35032 14.6298C1.32484 14.5021 1.29936 14.3745 1.24841 14.2468C1.1465 13.7106 1.07006 13.1489 1.04459 12.5872C1.01911 12.383 1.01911 12.1787 1.01911 12C1.01911 5.94894 5.93631 1.02128 11.9745 1.02128Z" fill="white"/>
<path d="M11.9493 14.1953C14.7264 14.1953 16.9684 11.9485 16.9684 9.16553C16.9684 6.38255 14.7264 4.13574 11.9493 4.13574C9.17221 4.13574 6.93018 6.38255 6.93018 9.16553C6.93018 11.9485 9.19769 14.1953 11.9493 14.1953ZM11.9493 5.13149C14.1658 5.13149 15.9493 6.91872 15.9493 9.14C15.9493 11.3613 14.1658 13.1485 11.9493 13.1485C9.73272 13.1485 7.94928 11.3613 7.94928 9.14C7.94928 6.91872 9.7582 5.13149 11.9493 5.13149Z" fill="white"/>
</svg>
