<svg width="24" height="24" viewBox="0 0 24 24" fill="none" xmlns="http://www.w3.org/2000/svg">
<path d="M20.6194 5.25H3.38065C3.30885 5.25 3.23693 5.25 3.16526 5.25042C3.10467 5.25085 3.04423 5.25152 2.98379 5.25317C2.85197 5.25674 2.71902 5.26451 2.58885 5.28791C2.4566 5.31171 2.33353 5.35053 2.21347 5.41166C2.09545 5.47168 1.98739 5.55019 1.89375 5.64387C1.80006 5.73756 1.72155 5.84544 1.66154 5.96359C1.6004 6.08365 1.56156 6.20675 1.53792 6.33911C1.5144 6.46932 1.50657 6.60224 1.50302 6.73392C1.50139 6.79436 1.5007 6.8548 1.5003 6.91523C1.49988 6.98706 1.50002 7.05883 1.50002 7.13078V16.8134C1.50002 16.8853 1.49988 16.957 1.5003 17.0289C1.5007 17.0894 1.50139 17.1498 1.50302 17.2102C1.50657 17.3418 1.5144 17.4747 1.53792 17.6049C1.56156 17.7373 1.6004 17.8604 1.66154 17.9804C1.72155 18.0986 1.80006 18.2066 1.89375 18.3002C1.98739 18.394 2.09545 18.4725 2.21347 18.5324C2.33353 18.5936 2.4566 18.6325 2.58885 18.6563C2.71902 18.6795 2.85197 18.6874 2.98379 18.691C3.04423 18.6924 3.10467 18.6932 3.16526 18.6935C3.23693 18.694 3.30885 18.694 3.38065 18.694H20.6194C20.691 18.694 20.763 18.694 20.8346 18.6935C20.8951 18.6932 20.9555 18.6924 21.0162 18.691C21.1478 18.6874 21.2807 18.6795 21.4112 18.6563C21.5433 18.6325 21.6663 18.5936 21.7864 18.5324C21.9046 18.4725 22.0123 18.394 22.1062 18.3002C22.1997 18.2066 22.2782 18.0986 22.3384 17.9804C22.3996 17.8604 22.4384 17.7373 22.462 17.6049C22.4855 17.4747 22.4931 17.3418 22.4967 17.2102C22.4984 17.1498 22.4992 17.0894 22.4994 17.0289C22.5 16.957 22.5 16.8853 22.5 16.8134V7.13078C22.5 7.05883 22.5 6.98706 22.4994 6.91523C22.4992 6.8548 22.4984 6.79436 22.4967 6.73392C22.4931 6.60224 22.4855 6.46932 22.462 6.33911C22.4384 6.20675 22.3996 6.08365 22.3384 5.96359C22.2782 5.84544 22.1997 5.73756 22.1062 5.64387C22.0123 5.55019 21.9046 5.47168 21.7864 5.41166C21.6663 5.35053 21.5433 5.31171 21.4112 5.28791C21.2807 5.26451 21.1478 5.25674 21.0162 5.25317C20.9555 5.25152 20.8951 5.25085 20.8346 5.25042C20.763 5.25 20.691 5.25 20.6194 5.25Z" fill="black"/>
<path d="M20.6201 5.69813L20.8322 5.69854C20.8897 5.69895 20.9471 5.69957 21.0049 5.70114C21.1054 5.70386 21.2229 5.7093 21.3325 5.72894C21.4277 5.74609 21.5076 5.77218 21.5842 5.8112C21.6599 5.84966 21.7293 5.90005 21.7898 5.96051C21.8506 6.02137 21.901 6.09082 21.94 6.16733C21.9788 6.24339 22.0047 6.32289 22.0218 6.41883C22.0414 6.5272 22.0468 6.64507 22.0495 6.74617C22.0511 6.80324 22.0518 6.86031 22.0521 6.91873C22.0527 6.98939 22.0527 7.06 22.0527 7.1308V16.8134C22.0527 16.8842 22.0527 16.9547 22.0521 17.0268C22.0518 17.0839 22.0511 17.141 22.0495 17.1981C22.0468 17.2991 22.0414 17.4169 22.0215 17.5265C22.0047 17.6212 21.9788 17.7007 21.9398 17.7771C21.9009 17.8534 21.8506 17.9228 21.7901 17.9833C21.7292 18.0442 21.6601 18.0944 21.5835 18.1332C21.5074 18.1721 21.4277 18.1981 21.3334 18.2151C21.2216 18.235 21.0991 18.2405 21.0069 18.243C20.9488 18.2443 20.8911 18.2451 20.8319 18.2454C20.7614 18.2459 20.6907 18.2459 20.6201 18.2459H3.38142C3.38048 18.2459 3.37957 18.2459 3.37861 18.2459C3.30891 18.2459 3.23907 18.2459 3.1681 18.2454C3.11023 18.2451 3.05249 18.2443 2.99667 18.2431C2.90232 18.2405 2.77978 18.235 2.6689 18.2152C2.57379 18.1981 2.49405 18.1721 2.41696 18.1327C2.34111 18.0943 2.27205 18.0441 2.21114 17.9831C2.1507 17.9227 2.10047 17.8536 2.06163 17.7771C2.02276 17.7008 1.99675 17.621 1.97965 17.5253C1.95988 17.4158 1.95445 17.2985 1.95174 17.1982C1.95019 17.1408 1.94954 17.0834 1.94917 17.0264L1.94889 16.8579V7.08632L1.94916 6.9182C1.94954 6.86079 1.95019 6.80339 1.95174 6.74603C1.95445 6.64567 1.95988 6.52828 1.97981 6.41793C1.99676 6.32304 2.02276 6.24329 2.06183 6.16655C2.10037 6.09069 2.15068 6.02144 2.21144 5.9607C2.27196 5.90015 2.34125 5.84982 2.41758 5.811C2.49385 5.77216 2.57374 5.74609 2.66885 5.72898C2.77845 5.70929 2.89607 5.70386 2.99681 5.70113C3.05423 5.69957 3.11165 5.69895 3.16864 5.69855L3.38142 5.69813H20.6201Z" fill="white"/>
<path d="M7.23312 9.77181C7.41292 9.54691 7.53494 9.24493 7.50276 8.93635C7.23955 8.94944 6.91834 9.11 6.73238 9.33508C6.56541 9.52782 6.41763 9.84244 6.45615 10.1381C6.75162 10.1637 7.04682 9.9904 7.23312 9.77181Z" fill="black"/>
<path d="M7.49952 10.1958C7.07042 10.1702 6.70558 10.4393 6.50067 10.4393C6.29564 10.4393 5.98185 10.2087 5.64246 10.2149C5.20072 10.2214 4.79084 10.4711 4.56667 10.8684C4.1056 11.663 4.445 12.8418 4.89336 13.489C5.11109 13.8092 5.3735 14.1618 5.71927 14.1491C6.04595 14.1363 6.174 13.9376 6.57111 13.9376C6.96792 13.9376 7.08326 14.1491 7.42908 14.1427C7.7877 14.1363 8.01191 13.8224 8.22964 13.5019C8.47942 13.1369 8.58168 12.7844 8.58811 12.7651C8.58167 12.7586 7.89658 12.4958 7.89023 11.7078C7.88376 11.0479 8.4281 10.734 8.45372 10.7146C8.14633 10.2599 7.66603 10.2087 7.49952 10.1958Z" fill="black"/>
<path d="M11.2355 9.30283C12.1682 9.30283 12.8176 9.9457 12.8176 10.8817C12.8176 11.821 12.1548 12.4672 11.2121 12.4672H10.1795V14.1093H9.43349V9.30283L11.2355 9.30283ZM10.1795 11.841H11.0356C11.6851 11.841 12.0548 11.4913 12.0548 10.885C12.0548 10.2788 11.6851 9.9324 11.0389 9.9324H10.1795V11.841Z" fill="black"/>
<path d="M13.0125 13.1134C13.0125 12.5004 13.4821 12.1241 14.3149 12.0774L15.2741 12.0208V11.751C15.2741 11.3613 15.011 11.1281 14.5714 11.1281C14.1549 11.1281 13.8951 11.328 13.8319 11.6411H13.1524C13.1923 11.0082 13.7319 10.5419 14.598 10.5419C15.4473 10.5419 15.9902 10.9916 15.9902 11.6944V14.1093H15.3007V13.533H15.2842C15.081 13.9228 14.6379 14.1692 14.1783 14.1692C13.4921 14.1692 13.0125 13.7429 13.0125 13.1134ZM15.2741 12.7969V12.5205L14.4114 12.5737C13.9817 12.6037 13.7386 12.7936 13.7386 13.0934C13.7386 13.3998 13.9917 13.5997 14.3781 13.5997C14.8811 13.5997 15.2741 13.2532 15.2741 12.7969Z" fill="black"/>
<path d="M16.6417 15.3983V14.8154C16.6948 14.8287 16.8147 14.8287 16.8747 14.8287C17.2078 14.8287 17.3877 14.6888 17.4976 14.3291C17.4976 14.3224 17.5609 14.1159 17.5609 14.1126L16.2952 10.6051H17.0746L17.9607 13.4564H17.9739L18.86 10.6051H19.6194L18.307 14.2924C18.0073 15.1418 17.6609 15.4149 16.9348 15.4149C16.8747 15.4149 16.6948 15.4083 16.6417 15.3983Z" fill="black"/>
</svg>
