<svg width="12" height="16" viewBox="0 0 12 16" fill="none" xmlns="http://www.w3.org/2000/svg">
<path d="M0.0191942 16V15.6046C0.0191942 13.749 0.515191 12.3128 1.50719 11.2958C2.4992 10.2788 3.80928 9.18022 5.43744 8C3.79647 6.81978 2.47999 5.72118 1.48799 4.70419C0.495997 3.68721 0 2.25096 0 0.395457V0H0.76143V0.395457C0.76143 0.662113 0.772537 0.916352 0.794751 1.15818C0.816966 1.4 0.856686 1.63244 0.913911 1.85551H11.0888C11.1429 1.63244 11.1803 1.4 11.201 1.15818C11.2217 0.916352 11.232 0.662113 11.232 0.395457V0H12V0.395457C12 2.25096 11.504 3.68721 10.512 4.70419C9.52 5.72118 8.20991 6.81978 6.58176 8C8.20991 9.17008 9.52 10.2662 10.512 11.2882C11.504 12.3103 12 13.749 12 15.6046V16H11.2385V15.6046C11.2385 15.3379 11.2274 15.0836 11.2052 14.8418C11.183 14.6 11.1433 14.3676 11.0861 14.1445H0.930409C0.876279 14.3676 0.838872 14.6 0.818189 14.8418C0.797522 15.0836 0.787189 15.3379 0.787189 15.6046V16H0.0191942ZM2.55358 4.83651H9.44988C9.79061 4.48264 10.0854 4.11129 10.3344 3.72244C10.5834 3.3336 10.7872 2.91408 10.9459 2.46389H1.07328C1.2192 2.92573 1.41543 3.34899 1.66199 3.73365C1.90856 4.11832 2.20576 4.48594 2.55358 4.83651ZM6.0096 7.59391C6.55236 7.20726 7.05637 6.84064 7.52162 6.49404C7.98688 6.14744 8.41919 5.79771 8.81855 5.44487H3.18143C3.57754 5.8011 4.01162 6.15252 4.48364 6.49912C4.95567 6.84572 5.46432 7.21065 6.0096 7.59391ZM3.20065 10.5551H8.81855C8.41919 10.2023 7.98688 9.85256 7.52162 9.50596C7.05637 9.15936 6.55236 8.79274 6.0096 8.40609C5.46683 8.79274 4.96282 9.15936 4.49757 9.50596C4.03231 9.85256 3.60001 10.2023 3.20065 10.5551ZM1.09247 13.5361H10.9459C10.7872 13.0758 10.5846 12.653 10.338 12.2679C10.0914 11.8827 9.79423 11.5146 9.44639 11.1635H2.5728C2.23015 11.514 1.93425 11.8845 1.6851 12.275C1.43593 12.6656 1.23839 13.0859 1.09247 13.5361Z" fill="#020C32"/>
</svg>
