<svg width="18" height="18" viewBox="0 0 18 18" fill="none" xmlns="http://www.w3.org/2000/svg">
<path d="M5.90987 17.0002C3.20254 17.0002 1 14.7976 1 12.0903C1 9.38296 3.20254 7.18042 5.90987 7.18042C8.6172 7.18042 10.8197 9.38296 10.8197 12.0903C10.8197 14.7976 8.6172 17.0002 5.90987 17.0002ZM5.90987 7.38643C3.31615 7.38643 1.20601 9.49657 1.20601 12.0903C1.20601 14.684 3.31615 16.7942 5.90987 16.7942C8.50359 16.7942 10.6137 14.684 10.6137 12.0903C10.6137 9.49657 8.50359 7.38643 5.90987 7.38643Z" fill="#020C32" stroke="#020C32" stroke-width="0.6"/>
<path d="M12.09 17.0002C9.38272 17.0002 7.18018 14.7976 7.18018 12.0903C7.18018 9.38296 9.38272 7.18042 12.09 7.18042C14.7974 7.18042 16.9999 9.38296 16.9999 12.0903C16.9999 14.7976 14.7974 17.0002 12.09 17.0002ZM12.09 7.38643C9.49633 7.38643 7.38618 9.49657 7.38618 12.0903C7.38618 14.684 9.49633 16.7942 12.09 16.7942C14.6838 16.7942 16.7939 14.684 16.7939 12.0903C16.7939 9.49657 14.6838 7.38643 12.09 7.38643Z" fill="#020C32" stroke="#020C32" stroke-width="0.6"/>
<path d="M9.00005 10.8197C6.29272 10.8197 4.09018 8.6172 4.09018 5.90987C4.09018 3.20254 6.29272 1 9.00005 1C11.7074 1 13.9099 3.20254 13.9099 5.90987C13.9099 8.6172 11.7074 10.8197 9.00005 10.8197ZM9.00005 1.20601C6.40633 1.20601 4.29619 3.31615 4.29619 5.90987C4.29619 8.50359 6.40633 10.6137 9.00005 10.6137C11.5938 10.6137 13.7039 8.50359 13.7039 5.90987C13.7039 3.31615 11.5938 1.20601 9.00005 1.20601Z" fill="#020C32" stroke="#020C32" stroke-width="0.6"/>
</svg>
