<svg width="16" height="16" viewBox="0 0 16 16" fill="none" xmlns="http://www.w3.org/2000/svg">
<path d="M15.6161 0H4.00432C3.79241 0 3.62043 0.20287 3.62043 0.452834V10.6187H0.383886C0.171981 10.6187 0 10.8216 0 11.0716V13.4021C0 14.8346 0.987932 16 2.20216 16H13.7975C13.7988 16 13.7999 16 13.8013 16C13.8026 16 13.8038 15.9995 13.8051 15.9995C15.0161 15.9946 16 14.8315 16 13.4021V0.452834C16 0.202643 15.828 0 15.6161 0ZM2.20216 15.0943C1.41117 15.0943 0.767773 14.3352 0.767773 13.4021V11.5244H11.5951V13.4021C11.5951 14.0478 11.7959 14.6395 12.1277 15.0943H2.20216ZM15.2322 13.4021C15.2322 14.3352 14.5886 15.0943 13.7975 15.0943C13.0065 15.0943 12.3629 14.3352 12.3629 13.4021V11.0716C12.3629 10.8216 12.1909 10.6187 11.979 10.6187H4.38821V0.905669H15.232L15.2322 13.4021Z" fill="#020C32"/>
<path d="M6.4228 3.91202H12.9978C13.2097 3.91202 13.3817 3.70915 13.3817 3.45918C13.3817 3.20922 13.2097 3.00635 12.9978 3.00635H6.4228C6.21089 3.00635 6.03891 3.20922 6.03891 3.45918C6.03891 3.70915 6.2107 3.91202 6.4228 3.91202Z" fill="#020C32"/>
<path d="M6.4228 6.1188H12.9978C13.2097 6.1188 13.3817 5.91593 13.3817 5.66597C13.3817 5.416 13.2097 5.21313 12.9978 5.21313H6.4228C6.21089 5.21313 6.03891 5.416 6.03891 5.66597C6.03891 5.91593 6.2107 6.1188 6.4228 6.1188Z" fill="#020C32"/>
<path d="M6.4228 8.3251H10.7724C10.9843 8.3251 11.1563 8.12223 11.1563 7.87227C11.1563 7.6223 10.9843 7.41943 10.7724 7.41943H6.4228C6.21089 7.41943 6.03891 7.6223 6.03891 7.87227C6.03891 8.12223 6.2107 8.3251 6.4228 8.3251Z" fill="#020C32"/>
</svg>
