<svg width="24" height="24" viewBox="0 0 24 24" fill="none" xmlns="http://www.w3.org/2000/svg">
<rect width="24" height="24" fill="#1E1E1E"/>
<rect x="-45.5" y="-43.5" width="414" height="509" rx="4.5" stroke="#9747FF" stroke-dasharray="10 5"/>
<mask id="path-2-inside-1_5_3" fill="white">
<path d="M-26 -6H349V54H-26V-6Z"/>
</mask>
<path d="M-26 -6H349V54H-26V-6Z" fill="white"/>
<path d="M-26 -5.5H349V-6.5H-26V-5.5Z" fill="#CACACA" mask="url(#path-2-inside-1_5_3)"/>
<path d="M17.0637 4.79584C17.1168 3.26967 16.3621 1.74055 15.5991 0.599357C15.2037 0.0077162 14.8352 -0.0419255 14.5959 0.0206342C14.3418 0.0868847 14.0241 0.33454 13.9545 1.13821C13.8612 2.21557 13.6098 3.1811 13.3283 3.9737C12.65 3.98366 11.9505 4.05656 11.2293 4.20217C10.9623 4.25605 10.7111 4.32379 10.4668 4.39722C9.69775 3.70426 8.62979 2.55347 7.86256 0.971578C7.67343 0.58163 7.45876 0.378645 7.26296 0.378645C7.06906 0.378645 6.89356 0.57757 6.77969 0.990944C6.42019 2.29548 6.44428 4.61608 7.3869 6.16254C6.71012 6.80144 6.25578 7.46284 5.97264 7.95944C5.68722 8.4599 5.58623 9.29958 5.53193 9.75079C5.52482 9.81002 5.51876 9.86059 5.51336 9.90007C5.33578 11.2026 4.53705 12.377 4.53578 12.3792L1.61652 16.3517L1.10452 16.5705C0.798761 16.701 0.529439 17.0339 0.463985 17.362L0.307811 18.1439C-0.195772 18.9904 -0.0710891 20.187 0.605878 20.9025C0.617138 20.9145 0.62913 20.9255 0.641946 20.936L3.587 23.3286C3.63626 23.3685 3.69465 23.3954 3.75701 23.4065C3.86356 23.4255 3.98852 23.4373 4.124 23.4373C4.78267 23.4371 5.68976 23.1585 5.93282 22.0719C5.94225 22.0296 5.97254 21.9536 5.98574 21.9366C6.50132 21.4836 8.46988 20.0292 12.1556 20.3344C12.1742 20.3361 12.1928 20.3359 12.2117 20.3348C12.2276 20.3337 13.0705 20.2656 13.9758 19.7349C14.1416 20.0087 14.8202 21.1592 16.1674 23.7951C16.234 23.9253 16.3651 24 16.501 24C16.5589 24 16.6175 23.9865 16.6725 23.9581C16.8566 23.8625 16.9289 23.6346 16.834 23.449C15.3929 20.6292 14.7198 19.5095 14.5902 19.2986C15.1933 18.7861 15.7464 18.0236 16.0151 16.8872C16.0632 16.684 15.9387 16.4803 15.7374 16.4319C15.5353 16.3838 15.3336 16.5091 15.2857 16.7119C14.6849 19.2528 12.4595 19.5514 12.1855 19.5786C8.22543 19.2593 6.0629 20.8659 5.49294 21.367C5.2952 21.5406 5.21969 21.8233 5.2012 21.9058C5.0236 22.6993 4.25106 22.6993 3.97552 22.6733L1.13299 20.364C0.697788 19.886 0.624736 19.0349 0.97599 18.4923C1.00199 18.4523 1.02021 18.4075 1.02963 18.3604L1.19917 17.5111C1.21547 17.4294 1.32084 17.2991 1.39709 17.2666L2.00338 17.0075C2.06501 16.9811 2.11846 16.9387 2.15828 16.8844L5.1449 12.8199C5.18189 12.7664 6.05358 11.4894 6.25633 10.0031C6.2622 9.96024 6.26878 9.90561 6.27637 9.84175C6.32086 9.47231 6.41333 8.70332 6.62278 8.3359C7.03557 7.61194 7.8546 6.50192 9.27261 5.71282C9.14401 6.16328 9.12193 6.67724 9.54679 6.93763C9.60951 6.97602 9.67962 6.99447 9.74901 6.99447C9.87543 6.99447 9.99892 6.93283 10.0684 6.81767C10.176 6.63941 10.1261 6.41352 9.94912 6.30501C9.88695 6.18249 10.0429 5.68035 10.2639 5.29151C10.2709 5.27914 10.2752 5.26624 10.2808 5.2535C10.4679 5.18521 10.6602 5.12081 10.8636 5.06527C10.672 5.56078 10.5332 6.24503 11.0466 6.55969C11.1094 6.59807 11.1795 6.61653 11.2489 6.61653C11.3753 6.61653 11.4988 6.55489 11.5683 6.43973C11.6758 6.26147 11.6259 6.03558 11.449 5.92707C11.3868 5.80454 11.5427 5.30241 11.7637 4.91356C11.7715 4.89992 11.7766 4.88553 11.7826 4.87132C12.2061 4.80176 12.6212 4.75801 13.0273 4.73973C12.6314 5.65488 12.2628 6.19965 12.2556 6.21036C12.1376 6.38161 12.1796 6.61689 12.3496 6.73593C12.4148 6.78169 12.4894 6.80365 12.5632 6.80365C12.6819 6.80365 12.7986 6.747 12.8715 6.64144C12.9349 6.54954 14.4287 4.35257 14.7015 1.20392C14.7199 0.992604 14.7577 0.863425 14.7882 0.794037C14.8305 0.830392 14.8946 0.898119 14.9772 1.02158C15.7356 2.15616 16.8748 4.32286 15.9832 6.08985C15.8894 6.27585 15.9629 6.50339 16.1475 6.59788C16.3318 6.69274 16.5578 6.61836 16.6517 6.43236C16.789 6.16014 16.8876 5.88316 16.955 5.60358C19.1468 6.94298 23.0561 10.2027 23.3669 10.4819C23.5072 10.6161 23.7288 10.6214 23.8755 10.489C24.0296 10.3496 24.0424 10.1106 23.9042 9.95525C23.87 9.91687 19.4509 6.16698 17.0637 4.79584ZM7.96784 5.66871C7.32768 4.53711 7.20584 2.88379 7.39348 1.70438C8.08942 3.00135 8.95322 3.99437 9.66587 4.67993C9.00677 4.95693 8.44578 5.30036 7.96784 5.66871Z" fill="#020C32"/>
<path d="M12.9681 9.07129C12.5098 9.07129 11.6638 9.25472 11.1464 10.4834C11.0906 10.6163 11.014 10.798 11.107 10.9933C11.1969 11.1828 11.3685 11.2319 11.5239 11.2762C11.6682 11.3179 11.831 11.3389 12.0077 11.3389C12.6998 11.3389 13.4845 11.0221 14.1604 10.4699C14.2301 10.4131 14.442 10.24 14.4386 9.96447C14.4363 9.78473 14.3452 9.6238 14.1676 9.48614C13.828 9.22261 13.3907 9.07129 12.9681 9.07129ZM12.0077 10.5831C11.9809 10.5831 11.9549 10.5823 11.9296 10.5808C12.1876 10.0866 12.5436 9.82717 12.9681 9.82717C13.166 9.82717 13.3763 9.88456 13.5577 9.98496C12.8411 10.5223 12.2412 10.5831 12.0077 10.5831Z" fill="#020C32"/>
<path d="M18.2004 13.0973C18.0251 12.9862 17.7937 13.039 17.6833 13.2156C17.5729 13.3922 17.6253 13.6255 17.8006 13.737C17.8254 13.7527 20.3036 15.3526 21.7866 18.4928C21.8507 18.6288 21.9852 18.7083 22.1254 18.7083C22.1794 18.7083 22.2342 18.6965 22.2862 18.6716C22.4732 18.5819 22.5527 18.3564 22.4636 18.168C20.8883 14.832 18.3094 13.1667 18.2004 13.0973Z" fill="#020C32"/>
<path d="M3.31316 18.3292C3.51696 18.3655 3.71112 18.2266 3.74636 18.021C3.78142 17.8152 3.64446 17.6198 3.44043 17.5844C3.1245 17.5298 2.72354 17.7113 2.3688 18.0707C2.02349 18.4206 1.84179 18.8184 1.88262 19.1351C1.90724 19.3259 2.06918 19.4676 2.25511 19.4676C2.27096 19.4676 2.28697 19.4665 2.30307 19.4645C2.50842 19.4376 2.65351 19.2512 2.62687 19.0443C2.62732 19.0002 2.69315 18.8138 2.90049 18.6036C3.09913 18.4023 3.27527 18.3318 3.31316 18.3292Z" fill="#020C32"/>
</svg>
