<svg width="14" height="18" viewBox="0 0 14 18" fill="none" xmlns="http://www.w3.org/2000/svg">
<path d="M7.35454 11.602C9.67784 11.602 11.568 9.69292 11.568 7.34631C11.568 4.99969 9.67784 3.09058 7.35454 3.09058C5.03124 3.09058 3.14111 4.99969 3.14111 7.34631C3.14111 9.69292 5.03124 11.602 7.35454 11.602ZM7.35454 3.50628C9.4509 3.50628 11.1564 5.22891 11.1564 7.34631C11.1564 9.46368 9.4509 11.1863 7.35454 11.1863C5.2582 11.1863 3.55269 9.46368 3.55269 7.34631C3.55269 5.22891 5.2582 3.50628 7.35454 3.50628Z" fill="#020C32" stroke="#020C32" stroke-width="0.3"/>
<path d="M5.65728 7.96309L5.40434 9.45254C5.38085 9.59087 5.43609 9.72809 5.5485 9.8106C5.66094 9.89311 5.80719 9.90377 5.93026 9.83849L7.25459 9.13526C7.31699 9.10215 7.39147 9.10215 7.45387 9.13526L8.7782 9.83849C8.83171 9.8669 8.88959 9.88093 8.94719 9.88093C9.02203 9.88093 9.09638 9.85724 9.15991 9.8106C9.27235 9.72809 9.32759 9.5909 9.3041 9.45254L9.05119 7.96309C9.03928 7.89291 9.06232 7.82133 9.11279 7.77163L10.1842 6.71679C10.2837 6.61882 10.3189 6.47504 10.2759 6.34155C10.233 6.20804 10.1208 6.11256 9.98329 6.09234L8.50268 5.87505C8.4329 5.8648 8.37261 5.82057 8.34141 5.75674L7.67926 4.40156C7.61773 4.27568 7.49319 4.19751 7.35422 4.19751C7.21525 4.19751 7.09071 4.27568 7.02919 4.40158L6.36703 5.75674C6.33583 5.82057 6.27554 5.8648 6.20578 5.87505L4.72513 6.09234C4.58759 6.11256 4.47548 6.20804 4.43255 6.34155C4.38962 6.47506 4.42478 6.61885 4.52429 6.71679L5.59568 7.77163C5.64615 7.82133 5.66918 7.89291 5.65728 7.96309ZM6.26499 6.28644C6.46885 6.25648 6.64497 6.12723 6.7361 5.94069L7.35422 4.67568L7.97234 5.94069C8.06347 6.12723 8.2396 6.25648 8.44347 6.28644L9.82563 6.48927L8.82551 7.47396C8.678 7.61919 8.61073 7.82831 8.64554 8.03337L8.88163 9.42375L7.64542 8.7673C7.46307 8.67051 7.24535 8.67051 7.06305 8.7673L5.82681 9.42377L6.06292 8.03337C6.09774 7.82831 6.03047 7.61919 5.88296 7.47396L4.88283 6.48927L6.26499 6.28644Z" fill="#020C32" stroke="#020C32" stroke-width="0.3"/>
<path d="M11.4585 11.9757C12.7122 10.8204 13.5 9.15778 13.5 7.31272C13.5 3.83187 10.6963 1 7.25 1C3.80373 1 1 3.83187 1 7.31272C1 9.15793 1.78797 10.8207 3.0418 11.976L1.32358 14.1997C1.27869 14.2578 1.26761 14.3356 1.29446 14.4041C1.32134 14.4726 1.38211 14.5217 1.45421 14.533L3.58438 14.8672L4.42298 16.873C4.45137 16.9409 4.51324 16.9885 4.58559 16.9982C4.5946 16.9994 4.60362 17 4.61259 17C4.67547 17 4.73553 16.9709 4.77479 16.92L7.25027 13.7157L9.72515 16.92C9.76444 16.9709 9.82451 17 9.88738 17C9.89633 17 9.90537 16.9994 9.91439 16.9982C9.98674 16.9885 10.0486 16.9409 10.077 16.873L10.9156 14.8672L13.0457 14.533C13.1179 14.5217 13.1786 14.4726 13.2055 14.4041C13.2324 14.3356 13.2213 14.2578 13.1764 14.1997L11.4585 11.9757ZM1.41158 7.31272C1.41158 4.06108 4.03067 1.41571 7.25 1.41571C10.4693 1.41571 13.0884 4.06108 13.0884 7.31272C13.0884 10.5643 10.4693 13.2097 7.25 13.2097C4.03067 13.2097 1.41158 10.5643 1.41158 7.31272ZM4.66585 16.3853L3.91891 14.5988C3.89115 14.5324 3.83139 14.4853 3.7609 14.4743L1.86357 14.1765L3.35524 12.246C4.31683 13.0221 5.50921 13.5178 6.81023 13.6096L4.66585 16.3853ZM10.739 14.4743C10.6686 14.4853 10.6088 14.5324 10.5811 14.5988L9.83415 16.3853L7.69024 13.6096C8.99121 13.5177 10.1835 13.0219 11.1451 12.2458L12.6365 14.1765L10.739 14.4743Z" fill="#020C32" stroke="#020C32" stroke-width="0.3"/>
</svg>
