<svg width="24" height="24" viewBox="0 0 24 24" fill="none" xmlns="http://www.w3.org/2000/svg">
<path d="M9.52051 12.0009C9.52051 8.41646 12.4262 5.5 16.0106 5.5C19.595 5.5 22.5008 8.41646 22.5008 12.0009C22.5008 15.5853 19.595 18.5017 16.0106 18.5017C12.4262 18.5017 9.52051 15.5853 9.52051 12.0009Z" fill="#F79E1B"/>
<path d="M1.5 12.0009C1.5 8.41646 4.40573 5.5 7.99012 5.5C11.5745 5.5 14.4802 8.41646 14.4802 12.0009C14.4802 15.5853 11.5745 18.5017 7.99012 18.5017C4.40573 18.5017 1.5 15.5853 1.5 12.0009Z" fill="#EB001B"/>
<path d="M11.9984 6.808C10.4906 7.96614 9.51858 9.78738 9.51858 11.8356V12.1661C9.51858 14.2144 10.4906 16.0357 11.9985 17.1938C13.5063 16.0357 14.4783 14.2144 14.4783 12.1662V11.8357C14.4783 9.78739 13.5063 7.96614 11.9984 6.808Z" fill="#FF5F00"/>
</svg>
