<svg width="19" height="16" viewBox="0 0 19 16" fill="none" xmlns="http://www.w3.org/2000/svg">
<path d="M17.0064 6.95565V14.6968C17.0064 15.0612 16.8803 15.3695 16.6281 15.6217C16.3759 15.8739 16.0676 16 15.7032 16H2.28606C1.92165 16 1.61335 15.8739 1.36116 15.6217C1.10897 15.3695 0.98288 15.0612 0.98288 14.6968V6.91946C0.555727 6.60332 0.265531 6.2009 0.112292 5.71221C-0.040963 5.22352 -0.0373473 4.72277 0.123139 4.20995L1.04441 1.19638C1.1699 0.796988 1.37141 0.497742 1.64895 0.298636C1.92647 0.0995455 2.26312 0 2.6589 0H15.2544C15.6574 0 16.0055 0.0974347 16.2987 0.292305C16.5919 0.487176 16.7952 0.77647 16.9087 1.16019L17.8897 4.20995C18.0502 4.72277 18.0498 5.22955 17.8888 5.73031C17.7277 6.23108 17.4336 6.63952 17.0064 6.95565ZM11.0879 6.69682C11.7117 6.69682 12.1925 6.52367 12.5304 6.17737C12.8683 5.83106 13.0118 5.46424 12.9612 5.07692L12.3005 0.723976H9.36841V4.85972C9.36841 5.35203 9.53492 5.78129 9.86794 6.14751C10.201 6.51372 10.6076 6.69682 11.0879 6.69682ZM6.77836 6.69682C7.3141 6.69682 7.75904 6.51764 8.11319 6.15927C8.46734 5.8009 8.64441 5.36772 8.64441 4.85972V0.723976H5.6942L5.03356 5.14932C4.99494 5.46063 5.13491 5.79638 5.45347 6.15656C5.77203 6.51674 6.21366 6.69682 6.77836 6.69682ZM2.55029 6.69682C2.99917 6.69682 3.38801 6.54328 3.71681 6.23619C4.04563 5.9291 4.23959 5.55112 4.29872 5.10226L4.92857 0.723976H2.53945C2.33432 0.723976 2.1684 0.769224 2.0417 0.859718C1.91501 0.950228 1.82752 1.08598 1.77926 1.26696L0.841704 4.37647C0.660716 4.93514 0.732512 5.46153 1.05709 5.95565C1.38167 6.44976 1.87941 6.69682 2.55029 6.69682ZM15.439 6.69682C16.0254 6.69682 16.506 6.46576 16.8806 6.00362C17.2553 5.54147 17.3461 4.99909 17.153 4.37647L16.1974 1.23078C16.1491 1.04977 16.0616 0.920054 15.9349 0.841623C15.8082 0.763192 15.6423 0.723976 15.4372 0.723976H13.0662L13.696 5.10226C13.7672 5.55112 13.9642 5.9291 14.287 6.23619C14.6097 6.54328 14.9937 6.69682 15.439 6.69682ZM2.28606 15.276H15.7032C15.8601 15.276 15.9958 15.2217 16.1105 15.1131C16.2251 15.0045 16.2824 14.8658 16.2824 14.6968V7.3068C16.1895 7.34661 16.0661 7.37557 15.9123 7.39367C15.7584 7.41177 15.6007 7.42082 15.439 7.42082C15.0348 7.42082 14.6652 7.33243 14.3304 7.15565C13.9955 6.97888 13.6737 6.69985 13.3648 6.31856C13.1259 6.64435 12.8242 6.90951 12.4598 7.11402C12.0954 7.31856 11.6435 7.42082 11.1042 7.42082C10.706 7.42082 10.3443 7.33606 10.0191 7.16652C9.69389 6.99698 9.35634 6.73725 9.00641 6.38734C8.69872 6.73002 8.35242 6.98794 7.96749 7.16108C7.58258 7.33424 7.2049 7.42082 6.83446 7.42082C6.42059 7.42082 6.02542 7.3436 5.64895 7.18915C5.27248 7.03469 4.95091 6.74449 4.68425 6.31856C4.19918 6.7807 3.77323 7.07994 3.40641 7.21628C3.03959 7.35264 2.75421 7.42082 2.55029 7.42082C2.39222 7.42082 2.24109 7.41177 2.0969 7.39367C1.95272 7.37557 1.8227 7.34661 1.70686 7.3068V14.6968C1.70686 14.8658 1.76417 15.0045 1.87881 15.1131C1.99345 15.2217 2.12919 15.276 2.28606 15.276Z" fill="#020C32"/>
</svg>
