<svg width="16" height="18" viewBox="0 0 16 18" fill="none" xmlns="http://www.w3.org/2000/svg">
<path d="M6.88532 4.3051C6.93271 4.35216 6.99707 4.37867 7.06421 4.37878C7.13136 4.3789 7.19581 4.35262 7.24337 4.30572C7.29094 4.25883 7.31773 4.19516 7.31785 4.12872C7.31796 4.06228 7.2914 3.99851 7.24401 3.95145L4.33913 1.07853C4.32716 1.06685 4.31404 1.05638 4.29997 1.04729L4.27976 1.03604L4.25577 1.02354L4.23051 1.01604L4.21283 1.0048C4.18031 0.998401 4.14683 0.998401 4.11431 1.0048L4.08653 1.01604L4.06127 1.02354L4.03727 1.03604L4.01706 1.04729C4.00299 1.05638 3.98988 1.06685 3.97791 1.07853L1.07303 3.9527C1.0258 4.00009 0.999533 4.06411 1.00001 4.13067C1.00048 4.19722 1.02766 4.26087 1.07556 4.3076C1.12346 4.35433 1.18816 4.38032 1.25542 4.37985C1.32269 4.37938 1.38702 4.35249 1.43425 4.3051L3.90718 1.8583V16.1467L1.43425 13.6999C1.41078 13.6767 1.38292 13.6583 1.35225 13.6457C1.32159 13.6331 1.28872 13.6267 1.25553 13.6267C1.22234 13.6267 1.18948 13.6331 1.15881 13.6457C1.12815 13.6583 1.10029 13.6767 1.07682 13.6999C1.05335 13.7231 1.03473 13.7507 1.02203 13.781C1.00933 13.8114 1.00279 13.8439 1.00279 13.8767C1.00279 13.9096 1.00933 13.9421 1.02203 13.9724C1.03473 14.0028 1.05335 14.0303 1.07682 14.0535L3.9817 16.9277C3.99367 16.9394 4.00678 16.9499 4.02085 16.959L4.0398 16.969L4.06379 16.9815L4.08905 16.989L4.11052 16.9952C4.14304 17.0016 4.17652 17.0016 4.20904 16.9952L4.23051 16.989L4.25577 16.9815L4.27976 16.969L4.29871 16.959C4.31278 16.9499 4.3259 16.9394 4.33786 16.9277L7.24274 14.0535C7.29014 14.0066 7.31677 13.943 7.31677 13.8767C7.31677 13.8104 7.29014 13.7468 7.24274 13.6999C7.19534 13.653 7.13106 13.6267 7.06403 13.6267C6.997 13.6267 6.93271 13.653 6.88532 13.6999L4.41238 16.1467V1.8583L6.88532 4.3051Z" fill="#020C32" stroke="#020C32" stroke-width="0.2"/>
<path d="M8.14713 6.52696H14.7475C14.8145 6.52696 14.8788 6.50062 14.9261 6.45375C14.9735 6.40688 15.0001 6.34331 15.0001 6.27703C15.0001 6.21074 14.9735 6.14717 14.9261 6.1003C14.8788 6.05343 14.8145 6.0271 14.7475 6.0271H8.14713C8.08014 6.0271 8.01589 6.05343 7.96852 6.1003C7.92114 6.14717 7.89453 6.21074 7.89453 6.27703C7.89453 6.34331 7.92114 6.40688 7.96852 6.45375C8.01589 6.50062 8.08014 6.52696 8.14713 6.52696Z" fill="#020C32" stroke="#020C32" stroke-width="0.2"/>
<path d="M14.7488 11.4778H8.14713C8.08014 11.4778 8.01589 11.5041 7.96852 11.551C7.92114 11.5979 7.89453 11.6614 7.89453 11.7277C7.89453 11.794 7.92114 11.8576 7.96852 11.9044C8.01589 11.9513 8.08014 11.9776 8.14713 11.9776H14.7475C14.8145 11.9776 14.8788 11.9513 14.9261 11.9044C14.9735 11.8576 15.0001 11.794 15.0001 11.7277C15.0001 11.6614 14.9735 11.5979 14.9261 11.551C14.8788 11.5041 14.8145 11.4778 14.7475 11.4778H14.7488Z" fill="#020C32" stroke="#020C32" stroke-width="0.2"/>
<path d="M14.7488 8.75244H8.14713C8.08014 8.75244 8.01589 8.77877 7.96852 8.82564C7.92114 8.87251 7.89453 8.93608 7.89453 9.00237C7.89453 9.06865 7.92114 9.13223 7.96852 9.1791C8.01589 9.22597 8.08014 9.2523 8.14713 9.2523H14.7475C14.8145 9.2523 14.8788 9.22597 14.9261 9.1791C14.9735 9.13223 15.0001 9.06865 15.0001 9.00237C15.0001 8.93608 14.9735 8.87251 14.9261 8.82564C14.8788 8.77877 14.8145 8.75244 14.7475 8.75244H14.7488Z" fill="#020C32" stroke="#020C32" stroke-width="0.2"/>
</svg>
